<?xml version="1.0" encoding="UTF-8"?>
<!-- Generator: visioncortex VTracer 0.6.12 -->
<svg version="1.1" xmlns="http://www.w3.org/2000/svg" width="254" height="304">
<path d="M0 0 C11.88 0 23.76 0 36 0 C36 11.55 36 23.1 36 35 C48.21 35 60.42 35 73 35 C73 46.55 73 58.1 73 70 C84.88 70 96.76 70 109 70 C109 58.45 109 46.9 109 35 C121.21 35 133.42 35 146 35 C146 23.45 146 11.9 146 0 C157.88 0 169.76 0 182 0 C182 52.47 182 104.94 182 159 C170.12 159 158.24 159 146 159 C146 141.18 146 123.36 146 105 C133.79 105 121.58 105 109 105 C109 116.22 109 127.44 109 139 C96.79 139 84.58 139 72 139 C72.33 127.78 72.66 116.56 73 105 C60.79 105 48.58 105 36 105 C36 122.82 36 140.64 36 159 C24.12 159 12.24 159 0 159 C0 106.53 0 54.06 0 0 Z " fill="#000000" transform="translate(36,35)"/>
<path d="M0 0 C4.55555556 0.55555556 4.55555556 0.55555556 6 2 C6.125 4.5 6.125 4.5 6 7 C5 8 5 8 2 8.125 C-1 8 -1 8 -2 7 C-2.1875 4.5625 -2.1875 4.5625 -2 2 C-1.34 1.34 -0.68 0.68 0 0 Z " fill="#000000" transform="translate(89,223)"/>
<path d="M0 0 C2.31 0 4.62 0 7 0 C7 14.52 7 29.04 7 44 C5.02 44 3.04 44 1 44 C0 43 0 43 -0.12025452 41.24729919 C-0.11803391 40.48562943 -0.11581329 39.72395966 -0.11352539 38.93920898 C-0.11344986 38.07839218 -0.11337433 37.21757538 -0.11329651 36.33067322 C-0.10813522 35.39526199 -0.10297394 34.45985077 -0.09765625 33.49609375 C-0.0962413 32.54307877 -0.09482635 31.59006378 -0.09336853 30.60816956 C-0.08775152 27.55124835 -0.07519616 24.49439923 -0.0625 21.4375 C-0.05748719 19.37044376 -0.05292391 17.30338638 -0.04882812 15.23632812 C-0.03777656 10.15752412 -0.02050055 5.0787743 0 0 Z " fill="#000000" transform="translate(211,224)"/>
<path d="M0 0 C1.518521 2.33755275 2.74472878 4.69465775 3.93041992 7.21948242 C4.41704102 8.24750977 4.90366211 9.27553711 5.4050293 10.3347168 C5.90454102 11.40657227 6.40405273 12.47842773 6.91870117 13.58276367 C7.42981445 14.6662207 7.94092773 15.74967773 8.4675293 16.8659668 C9.72785885 19.53975005 10.98215305 22.21619649 12.23120117 24.89526367 C13.64905139 22.22922053 15.06550609 19.56245095 16.48120117 16.89526367 C16.87694336 16.15147461 17.27268555 15.40768555 17.68041992 14.64135742 C20.2696317 9.76005652 22.77812665 4.84642326 25.23120117 -0.10473633 C28.20120117 -0.10473633 31.17120117 -0.10473633 34.23120117 -0.10473633 C34.23120117 14.08526367 34.23120117 28.27526367 34.23120117 42.89526367 C31.92120117 42.89526367 29.61120117 42.89526367 27.23120117 42.89526367 C26.90120117 33.32526367 26.57120117 23.75526367 26.23120117 13.89526367 C21.29370117 24.33276367 21.29370117 24.33276367 19.73925781 27.62744141 C19.33570068 28.47765869 18.93214355 29.32787598 18.51635742 30.20385742 C18.30950317 30.64113159 18.30950317 30.64113159 17.26269531 32.85400391 C16.23120117 34.89526367 16.23120117 34.89526367 15.23120117 35.89526367 C13.56503002 35.93590199 11.89732022 35.93798467 10.23120117 35.89526367 C8.95669277 33.5430237 7.68654219 31.18859436 6.41870117 28.83276367 C6.24048828 28.504375 6.24048828 28.504375 5.33862305 26.8425293 C3.06374604 22.60583175 1.06406881 18.34155771 -0.76879883 13.89526367 C-0.79385498 14.73822998 -0.81891113 15.58119629 -0.84472656 16.44970703 C-0.93968038 19.56768041 -1.03892331 22.68547871 -1.14111328 25.80322266 C-1.18451106 27.15440514 -1.22618252 28.5056442 -1.26611328 29.85693359 C-1.32369834 31.79563068 -1.3879418 33.73412643 -1.45239258 35.67260742 C-1.48905029 36.84041748 -1.52570801 38.00822754 -1.56347656 39.21142578 C-1.76879883 41.89526367 -1.76879883 41.89526367 -2.76879883 42.89526367 C-4.74879883 42.89526367 -6.72879883 42.89526367 -8.76879883 42.89526367 C-8.76879883 28.70526367 -8.76879883 14.51526367 -8.76879883 -0.10473633 C-1.76879883 -1.10473633 -1.76879883 -1.10473633 0 0 Z " fill="#000000" transform="translate(44.768798828125,225.104736328125)"/>
<path d="M0 0 C2.31 0 4.62 0 7 0 C7 2.64 7 5.28 7 8 C9.31 8 11.62 8 14 8 C14 9.98 14 11.96 14 14 C11.69 14 9.38 14 7 14 C7.33 20.27 7.66 26.54 8 33 C9.98 33.33 11.96 33.66 14 34 C14.38218767 35.65614657 14.71395102 37.32457024 15 39 C13.44049449 40.55950551 11.91122869 40.28196698 9.75 40.375 C8.98171875 40.42398438 8.2134375 40.47296875 7.421875 40.5234375 C3.55138252 39.68691171 2.27337302 38.22427422 0 35 C-0.60044978 31.37349167 -0.47239955 27.85042969 -0.3125 24.1875 C-0.3012207 23.69797852 -0.3012207 23.69797852 -0.24414062 21.22070312 C-0.18539727 18.81222545 -0.10332129 16.40690922 0 14 C-1.98 14 -3.96 14 -6 14 C-5.67 12.02 -5.34 10.04 -5 8 C-3.35 8 -1.7 8 0 8 C0 5.36 0 2.72 0 0 Z " fill="#000000" transform="translate(135,228)"/>
<path d="M0 0 C1.98 0 3.96 0 6 0 C7.88319268 1.88319268 7.13054285 5.11930137 7.1328125 7.625 C7.13376923 8.28709473 7.13472595 8.94918945 7.13571167 9.63134766 C7.13639326 11.03352961 7.13454042 12.4357147 7.13037109 13.83789062 C7.12502246 15.99095713 7.1303167 18.14381502 7.13671875 20.296875 C7.13605796 21.65625046 7.13477679 23.0156258 7.1328125 24.375 C7.13168457 25.62023437 7.13055664 26.86546875 7.12939453 28.1484375 C7 31 7 31 6 32 C4.02 32 2.04 32 0 32 C0 21.44 0 10.88 0 0 Z " fill="#000000" transform="translate(88,236)"/>
<path d="M0 0 C2.31696033 2.0997453 3.11593727 3.83883445 4 6.8125 C1.25 7.5 1.25 7.5 -2 7.8125 C-3.33849671 6.81942179 -4.67151309 5.81892948 -6 4.8125 C-9.75 4.625 -9.75 4.625 -13 4.8125 C-12.67 6.4625 -12.34 8.1125 -12 9.8125 C-11.09636719 10.06644531 -10.19273438 10.32039062 -9.26171875 10.58203125 C-8.08222656 10.92621094 -6.90273437 11.27039063 -5.6875 11.625 C-5.10162109 11.79322266 -5.10162109 11.79322266 -2.13671875 12.64453125 C0.79045546 13.73447532 2.17982587 14.3418169 4 16.8125 C5.07617124 20.34849123 5.3192255 22.09004229 3.8125 25.5 C1.1560585 28.88925295 -0.67761935 30.60747974 -5.0234375 31.28125 C-15.18331958 31.37598084 -15.18331958 31.37598084 -18.8125 28.3125 C-19.534375 27.4875 -20.25625 26.6625 -21 25.8125 C-20.67 24.4925 -20.34 23.1725 -20 21.8125 C-18.35 21.8125 -16.7 21.8125 -15 21.8125 C-15 22.4725 -15 23.1325 -15 23.8125 C-13.37585622 24.00727739 -11.75063577 24.19309458 -10.125 24.375 C-9.22007813 24.47941406 -8.31515625 24.58382813 -7.3828125 24.69140625 C-5 24.8125 -5 24.8125 -3 23.8125 C-3.13671875 21.94140625 -3.13671875 21.94140625 -4 19.8125 C-6.58203125 18.65234375 -6.58203125 18.65234375 -9.8125 17.75 C-13.80154576 16.61790784 -16.93140964 15.67317185 -20 12.8125 C-21.14502153 9.30110065 -21.30867902 7.54989988 -19.875 4.125 C-14.74089196 -2.20706658 -7.39815845 -2.92843772 0 0 Z " fill="#000000" transform="translate(122,237.1875)"/>
<path d="M0 0 C1.98 0 3.96 0 6 0 C6.33 0.99 6.66 1.98 7 3 C7.515625 2.505 8.03125 2.01 8.5625 1.5 C11.80680017 -0.49649241 14.26217334 -0.21564385 18 0 C18 1.98 18 3.96 18 6 C16 7 16 7 13 7.4375 C10 8 10 8 8 10 C7.08997638 12.74044455 6.8888248 15.2006919 6.9375 18.07421875 C6.94523438 18.82380859 6.95296875 19.57339844 6.9609375 20.34570312 C6.96738281 20.73209961 6.96738281 20.73209961 7 22.6875 C7.0456331 25.464274 7.04723586 28.22194121 7 31 C6 32 6 32 2.9375 32.0625 C1.968125 32.041875 0.99875 32.02125 0 32 C-1.47308269 29.05383462 -1.00294692 26.52237406 -0.87890625 23.2421875 C-0.86710075 22.91066177 -0.86710075 22.91066177 -0.80735779 21.23294067 C-0.73073184 19.11340871 -0.64670357 16.99424315 -0.5625 14.875 C-0.50927819 13.43882006 -0.4565378 12.0026222 -0.40429688 10.56640625 C-0.27511856 7.04404564 -0.1392997 3.52197648 0 0 Z " fill="#000000" transform="translate(156,236)"/>
<path d="M0 0 C3.26318587 3.01844693 4.35186816 5.56470354 4.72705078 9.99145508 C4.71657715 10.92884521 4.70610352 11.86623535 4.6953125 12.83203125 C4.68886719 13.85361328 4.68242187 14.87519531 4.67578125 15.92773438 C4.65902344 16.98283203 4.64226562 18.03792969 4.625 19.125 C4.61597656 20.19943359 4.60695312 21.27386719 4.59765625 22.38085938 C4.57415306 25.02496854 4.54129575 27.66861872 4.5 30.3125 C1.625 30.4375 1.625 30.4375 -1.5 30.3125 C-2.16 29.6525 -2.82 28.9925 -3.5 28.3125 C-4.05816406 28.63347656 -4.61632812 28.95445312 -5.19140625 29.28515625 C-9.20228026 31.07002912 -13.20511615 30.97165019 -17.5 30.3125 C-20.62809283 28.31052059 -22.12325758 27.02650832 -22.93359375 23.33984375 C-23.14501112 19.91231972 -22.80522178 17.7420714 -20.8125 14.9375 C-16.50171646 11.90830075 -12.92796784 11.06122367 -7.6875 11.1875 C-7.19958984 11.19652344 -7.19958984 11.19652344 -4.73046875 11.2421875 C-3.99441406 11.26539063 -3.25835937 11.28859375 -2.5 11.3125 C-3.16 9.3325 -3.82 7.3525 -4.5 5.3125 C-10.125 4.1875 -10.125 4.1875 -13.5 5.3125 C-13.95375 5.84875 -14.4075 6.385 -14.875 6.9375 C-15.41125 7.39125 -15.9475 7.845 -16.5 8.3125 C-19.1875 8 -19.1875 8 -21.5 7.3125 C-20.32191948 3.9595016 -19.30593388 1.5572471 -16.5 -0.6875 C-10.83823635 -2.57475455 -5.39004798 -2.59877314 0 0 Z M-15.5 18.3125 C-15.8125 20.8125 -15.8125 20.8125 -15.5 23.3125 C-13.5 25.3125 -13.5 25.3125 -10.6875 25.6875 C-6.7385506 25.22291772 -5.17691559 24.22561402 -2.5 21.3125 C-2.3671875 18.66796875 -2.3671875 18.66796875 -2.5 16.3125 C-4.10379341 16.25833812 -5.70811406 16.21963362 -7.3125 16.1875 C-8.20582031 16.16429687 -9.09914062 16.14109375 -10.01953125 16.1171875 C-12.5 16.3125 -12.5 16.3125 -15.5 18.3125 Z " fill="#000000" transform="translate(199.5,237.6875)"/>
</svg>
