<?xml version="1.0" encoding="UTF-8"?>
<!-- Generator: visioncortex VTracer 0.6.12 -->
<svg version="1.1" xmlns="http://www.w3.org/2000/svg" width="225" height="258">
<path d="M0 0 C3.125 0.375 3.125 0.375 6 1 C7.33264887 8.39014374 7.33264887 8.39014374 5.875 11.0625 C3.25635043 12.37182479 1.73568275 11.86389982 -1 11 C-2.89488952 9.10511048 -2.18019112 6.42860854 -2.23046875 3.91015625 C-2 2 -2 2 0 0 Z " fill="#000000" transform="translate(68,35)"/>
<path d="M0 0 C2.375 0.75 2.375 0.75 3.375 1.75 C3.74586093 7.5910596 3.74586093 7.5910596 3.375 9.75 C0.375 11.75 0.375 11.75 -2.25 11.5 C-3.03375 11.2525 -3.8175 11.005 -4.625 10.75 C-6.02435013 7.95129973 -5.87765405 5.84501208 -5.625 2.75 C-3.92079816 -0.03053984 -3.27136899 -0.31155895 0 0 Z " fill="#000000" transform="translate(157.625,35.25)"/>
<path d="M0 0 C1.9375 0.8125 1.9375 0.8125 3.9375 2.8125 C4.25 5.8125 4.25 5.8125 3.9375 8.8125 C0.9375 10.8125 0.9375 10.8125 -1.75 10.4375 C-2.513125 10.23125 -3.27625 10.025 -4.0625 9.8125 C-5.39804084 3.37762141 -5.39804084 3.37762141 -3.875 0.8125 C-2.0625 -0.1875 -2.0625 -0.1875 0 0 Z " fill="#000000" transform="translate(157.0625,52.1875)"/>
<path d="M0 0 C1.32 0.66 2.64 1.32 4 2 C4.125 5.375 4.125 5.375 4 9 C3.34 9.66 2.68 10.32 2 11 C-2.55555556 10.44444444 -2.55555556 10.44444444 -4 9 C-4.3125 6.125 -4.3125 6.125 -4 3 C-2 1.125 -2 1.125 0 0 Z " fill="#000000" transform="translate(70,52)"/>
<path d="M0 0 C1.875 0.75 1.875 0.75 2.875 2.75 C2.914992 4.74960012 2.91846799 6.75047242 2.875 8.75 C0.625 9.9375 0.625 9.9375 -2.125 10.75 C-4.4375 9.375 -4.4375 9.375 -6.125 7.75 C-5.8125 4.875 -5.8125 4.875 -5.125 1.75 C-2.125 -0.25 -2.125 -0.25 0 0 Z " fill="#000000" transform="translate(93.125,60.25)"/>
<path d="M0 0 C2.6875 0.875 2.6875 0.875 5 2 C5.125 5.375 5.125 5.375 5 9 C4.34 9.66 3.68 10.32 3 11 C-1.55555556 10.44444444 -1.55555556 10.44444444 -3 9 C-3.25 5.5625 -3.25 5.5625 -3 2 C-2.01 1.34 -1.02 0.68 0 0 Z " fill="#000000" transform="translate(134,60)"/>
<path d="M0 0 C4.55555556 0.55555556 4.55555556 0.55555556 6 2 C6.0979057 3.49738124 6.12974864 4.99942892 6.125 6.5 C6.12757812 7.3146875 6.13015625 8.129375 6.1328125 8.96875 C6 11 6 11 5 12 C2.5625 12.1875 2.5625 12.1875 0 12 C-2 10 -2 10 -2.265625 8.125 C-2.26046875 7.42375 -2.2553125 6.7225 -2.25 6 C-2.25515625 5.29875 -2.2603125 4.5975 -2.265625 3.875 C-2 2 -2 2 0 0 Z " fill="#000000" transform="translate(68,69)"/>
<path d="M0 0 C1.52150158 3.04300316 1.23899393 5.654085 1 9 C-2 11 -2 11 -4.6875 10.625 C-5.450625 10.41875 -6.21375 10.2125 -7 10 C-8.125 3.375 -8.125 3.375 -7 0 C-4.30234372 -1.34882814 -2.84835666 -0.80338265 0 0 Z " fill="#000000" transform="translate(160,70)"/>
<path d="M0 0 C1 1 1 1 1.25 3.9375 C1.1675 4.948125 1.085 5.95875 1 7 C-2 9 -2 9 -4.0625 8.75 C-6 8 -6 8 -8 6 C-7.75 2.9375 -7.75 2.9375 -7 0 C-4.31633121 -1.3418344 -2.84719317 -0.73004953 0 0 Z " fill="#000000" transform="translate(95,77)"/>
<path d="M0 0 C4.55555556 0.55555556 4.55555556 0.55555556 6 2 C6.14115161 4.67058851 6.04247107 7.32432238 6 10 C3.6739143 10.38063221 1.33944736 10.71269945 -1 11 C-2.89488952 9.10511048 -2.18019112 6.42860854 -2.23046875 3.91015625 C-2 2 -2 2 0 0 Z " fill="#000000" transform="translate(133,76)"/>
<path d="M0 0 C2.5 0.25 2.5 0.25 4.5 2.25 C4.9375 5.6875 4.9375 5.6875 4.5 9.25 C2 11.1875 2 11.1875 -0.5 12.25 C-2.5 11.1875 -2.5 11.1875 -4.5 9.25 C-4.875 5.6875 -4.875 5.6875 -4.5 2.25 C-2.5 0.25 -2.5 0.25 0 0 Z " fill="#000000" transform="translate(113.5,76.75)"/>
<path d="M0 0 C3.125 0.375 3.125 0.375 6 1 C6.1953125 7.0546875 6.1953125 7.0546875 6 9 C5.34 9.66 4.68 10.32 4 11 C-0.55555556 10.44444444 -0.55555556 10.44444444 -2 9 C-2.1875 5.5625 -2.1875 5.5625 -2 2 C-1.34 1.34 -0.68 0.68 0 0 Z " fill="#000000" transform="translate(68,87)"/>
<path d="M0 0 C2.375 0.75 2.375 0.75 3.375 1.75 C3.625 5.1875 3.625 5.1875 3.375 8.75 C0.375 10.75 0.375 10.75 -2.3125 10.375 C-3.075625 10.16875 -3.83875 9.9625 -4.625 9.75 C-5.95578101 3.33805513 -5.95578101 3.33805513 -4.5 0.75 C-2.625 -0.25 -2.625 -0.25 0 0 Z " fill="#000000" transform="translate(157.625,87.25)"/>
<path d="M0 0 C1.65 0.99 3.3 1.98 5 3 C4.125 7.875 4.125 7.875 3 9 C0.5 9.125 0.5 9.125 -2 9 C-3 8 -3 8 -3.25 5.0625 C-3.1675 4.051875 -3.085 3.04125 -3 2 C-2.01 1.34 -1.02 0.68 0 0 Z " fill="#000000" transform="translate(91,90)"/>
<path d="M0 0 C4.55555556 0.55555556 4.55555556 0.55555556 6 2 C6.08631874 3.34267413 6.10706473 4.68974322 6.09765625 6.03515625 C6.09443359 6.84404297 6.09121094 7.65292969 6.08789062 8.48632812 C6.07951172 9.33646484 6.07113281 10.18660156 6.0625 11.0625 C6.05798828 11.91650391 6.05347656 12.77050781 6.04882812 13.65039062 C6.03700373 15.76695663 6.01906769 17.88348685 6 20 C3.6875 21.125 3.6875 21.125 1 22 C-2 20 -2 20 -2.37231445 18.15234375 C-2.3693335 17.42144531 -2.36635254 16.69054687 -2.36328125 15.9375 C-2.36263672 15.14085938 -2.36199219 14.34421875 -2.36132812 13.5234375 C-2.34521484 12.69070312 -2.32910156 11.85796875 -2.3125 11 C-2.31572266 10.16726562 -2.31894531 9.33453125 -2.32226562 8.4765625 C-2.26700255 2.26700255 -2.26700255 2.26700255 0 0 Z " fill="#000000" transform="translate(133,92)"/>
<path d="M0 0 C2.5 0.25 2.5 0.25 4.5 2.25 C4.125 5.875 4.125 5.875 3.5 9.25 C1.1875 9.875 1.1875 9.875 -1.5 10.25 C-2.49 9.59 -3.48 8.93 -4.5 8.25 C-4.8125 5.25 -4.8125 5.25 -4.5 2.25 C-2.5 0.25 -2.5 0.25 0 0 Z " fill="#000000" transform="translate(113.5,93.75)"/>
<path d="M0 0 C1 1 1 1 1.125 4 C1 7 1 7 0 8 C-2.4375 8.1875 -2.4375 8.1875 -5 8 C-5.66 7.34 -6.32 6.68 -7 6 C-6.75 2.9375 -6.75 2.9375 -6 0 C-3.49749232 -1.25125384 -2.59701335 -0.83774624 0 0 Z " fill="#000000" transform="translate(73,105)"/>
<path d="M0 0 C1 1 1 1 1.25 3.9375 C1.1675 4.948125 1.085 5.95875 1 7 C-2 9 -2 9 -4.0625 8.8125 C-6 8 -6 8 -8 5 C-7.75 2.375 -7.75 2.375 -7 0 C-4.31633121 -1.3418344 -2.84719317 -0.73004953 0 0 Z " fill="#000000" transform="translate(95,105)"/>
<path d="M0 0 C0.625 2.875 0.625 2.875 1 6 C-1 8 -1 8 -3.5 8.3125 C-3.9125 8.2609375 -3.9125 8.2609375 -6 8 C-8 5 -8 5 -7.75 2.375 C-7.5025 1.59125 -7.255 0.8075 -7 0 C-4.3333581 -1.33332095 -2.83319697 -0.67102033 0 0 Z " fill="#000000" transform="translate(160,105)"/>
<path d="M0 0 C3.875 1.75 3.875 1.75 5 4 C5.14833651 6.1423215 5.22127413 8.29024129 5.25 10.4375 C5.26289062 11.01435547 5.26289062 11.01435547 5.328125 13.93359375 C5 17 5 17 3.6484375 18.92578125 C2 20 2 20 -0.625 19.75 C-3 19 -3 19 -4 18 C-4.18020629 15.52437918 -4.27795445 13.1030672 -4.3125 10.625 C-4.34150391 9.93921875 -4.37050781 9.2534375 -4.40039062 8.546875 C-4.42578125 6.5390625 -4.42578125 6.5390625 -4 3 C-1.98046875 1.0234375 -1.98046875 1.0234375 0 0 Z " fill="#000000" transform="translate(113,109)"/>
<path d="M0 0 C1.9375 0.8125 1.9375 0.8125 3.9375 3.8125 C3.39695946 8.35304054 3.39695946 8.35304054 1.9375 9.8125 C-0.40194736 9.52519945 -2.7364143 9.19313221 -5.0625 8.8125 C-5.25 5.4375 -5.25 5.4375 -5.0625 1.8125 C-2.0625 -0.1875 -2.0625 -0.1875 0 0 Z " fill="#000000" transform="translate(136.0625,119.1875)"/>
<path d="M0 0 C2.5625 0.1875 2.5625 0.1875 4.5625 2.1875 C4.8125 4.6875 4.8125 4.6875 4.5625 7.1875 C2.5625 9.1875 2.5625 9.1875 0.0625 9.5 C-0.35 9.4484375 -0.35 9.4484375 -2.4375 9.1875 C-4.4375 6.1875 -4.4375 6.1875 -4.125 3.5625 C-3.16420807 0.24340062 -3.16420807 0.24340062 0 0 Z " fill="#000000" transform="translate(91.4375,119.8125)"/>
<path d="M0 0 C3.30061871 1.19952063 6.02869913 3.15348859 8.89746094 5.13623047 C9.53735458 5.57185303 10.17724823 6.00747559 10.83653259 6.45629883 C12.20209187 7.38716331 13.5658066 8.32073849 14.92782593 9.2567749 C17.04097191 10.70852566 19.159519 12.15206306 21.27954102 13.59375 C27.13825625 17.58364175 32.98193336 21.5903408 38.75292969 25.70654297 C39.48995117 26.22877441 40.22697266 26.75100586 40.98632812 27.2890625 C42.27259909 28.20561739 43.55123599 29.13302378 44.8203125 30.07324219 C48.77127025 32.88890716 48.77127025 32.88890716 51.16430664 32.62329102 C53.76998577 31.65189 55.78379638 30.32049613 58.06933594 28.73388672 C58.98787354 28.10111816 59.90641113 27.46834961 60.8527832 26.81640625 C61.82143311 26.14077637 62.79008301 25.46514648 63.78808594 24.76904297 C65.7864767 23.38969161 67.78517186 22.01078115 69.78417969 20.63232422 C70.74050293 19.97055176 71.69682617 19.3087793 72.68212891 18.62695312 C76.60098451 15.92700333 80.56557555 13.30140466 84.54199219 10.68701172 C86.64562131 9.26564069 88.70266986 7.81495751 90.75292969 6.31982422 C91.34195068 5.89556152 91.93097168 5.47129883 92.5378418 5.03417969 C94.19068752 3.8394459 95.83347546 2.63083328 97.47558594 1.42138672 C100.28808594 -0.16845703 100.28808594 -0.16845703 102.60058594 0.02294922 C104.28808594 0.83154297 104.28808594 0.83154297 105.28808594 1.83154297 C105.58520508 4.18701172 105.58520508 4.18701172 105.28808594 6.83154297 C103.73901367 8.56982422 103.73901367 8.56982422 101.53417969 10.14404297 C100.71030762 10.73958984 99.88643555 11.33513672 99.03759766 11.94873047 C98.13025879 12.57005859 97.22291992 13.19138672 96.28808594 13.83154297 C95.35367676 14.47349609 94.41926758 15.11544922 93.45654297 15.77685547 C90.43656244 17.81920928 87.39752253 19.82965385 84.35058594 21.83154297 C78.46934942 25.71026118 72.58898559 29.5889432 66.78417969 33.58154297 C66.01130615 34.11263672 65.23843262 34.64373047 64.44213867 35.19091797 C62.18504732 36.91002189 60.24745437 38.78340326 58.28808594 40.83154297 C58.94808594 40.83154297 59.60808594 40.83154297 60.28808594 40.83154297 C60.97558594 43.14404297 60.97558594 43.14404297 61.28808594 45.83154297 C60.31933594 47.48779297 60.31933594 47.48779297 58.28808594 48.83154297 C55.47681551 49.04868538 52.89975144 49.11438572 50.10058594 49.01904297 C49.35099609 49.00550781 48.60140625 48.99197266 47.82910156 48.97802734 C45.98178827 48.94272836 44.13484528 48.88892214 42.28808594 48.83154297 C41.10058594 46.58154297 41.10058594 46.58154297 40.28808594 43.83154297 C41.73730469 41.65966797 41.73730469 41.65966797 43.28808594 39.83154297 C34.20159728 33.04577235 24.80518304 26.77480191 15.35058594 20.51904297 C13.11115245 19.03533685 10.8721982 17.55091967 8.63414001 16.06513977 C7.25378906 15.14894954 5.87261762 14.23399386 4.49049377 13.32048035 C1.35440069 11.24067725 -1.73534332 9.13518253 -4.71191406 6.83154297 C-4.33691406 3.89404297 -4.33691406 3.89404297 -3.71191406 0.83154297 C-1.71191406 -0.16845703 -1.71191406 -0.16845703 0 0 Z " fill="#000000" transform="translate(62.7119140625,122.16845703125)"/>
<path d="M0 0 C2.5 0.25 2.5 0.25 4.5 2.25 C4.125 5.875 4.125 5.875 3.5 9.25 C0.625 9.875 0.625 9.875 -2.5 10.25 C-4.5 8.25 -4.5 8.25 -4.75 5.25 C-4.43608753 1.48305032 -3.83691092 0.38369109 0 0 Z " fill="#000000" transform="translate(113.5,133.75)"/>
<path d="M0 0 C2.3737793 0.22045898 2.3737793 0.22045898 5 1 C6.21020508 2.94946289 6.21020508 2.94946289 7.01953125 5.47265625 C7.29128174 6.28226807 7.56303223 7.09187988 7.84301758 7.92602539 C8.16294678 8.96106201 8.48287598 9.99609863 8.8125 11.0625 C9.864375 14.341875 10.91625 17.62125 12 21 C14.31 14.07 16.62 7.14 19 0 C20.65 0 22.3 0 24 0 C22.19680404 6.43772593 20.08795184 12.75631478 17.875 19.0625 C17.742146 19.44369995 17.742146 19.44369995 17.06982422 21.37280273 C15.12175378 26.87824622 15.12175378 26.87824622 14 28 C12.33382885 28.04063832 10.66611905 28.042721 9 28 C7.49223384 23.89864435 5.99512424 19.79347933 4.5 15.6875 C4.07074219 14.52025391 3.64148437 13.35300781 3.19921875 12.15039062 C2.79316406 11.03212891 2.38710938 9.91386719 1.96875 8.76171875 C1.59169922 7.73006592 1.21464844 6.69841309 0.82617188 5.63549805 C0 3 0 3 0 0 Z " fill="#000000" transform="translate(36,194)"/>
<path d="M0 0 C1.65 0 3.3 0 5 0 C8.95207137 9.23315789 12.52148365 18.58051242 16 28 C14.35 28 12.7 28 11 28 C9.5393715 25.35261084 9 24.10551666 9 21 C5.04 21 1.08 21 -3 21 C-3.66 23.31 -4.32 25.62 -5 28 C-6.65 28 -8.3 28 -10 28 C-8.89736164 24.83279914 -7.79260621 21.66634053 -6.6875 18.5 C-6.37876953 17.613125 -6.07003906 16.72625 -5.75195312 15.8125 C-3.90158202 10.51459536 -1.99190371 5.24636792 0 0 Z M2 5 C1.49440092 6.43554025 0.9957251 7.8735202 0.5 9.3125 C0.2215625 10.11300781 -0.056875 10.91351563 -0.34375 11.73828125 C-1 14 -1 14 -1 17 C1.64 17 4.28 17 7 17 C6.55149342 15.18504338 6.09090429 13.37306866 5.625 11.5625 C5.49738281 11.05783203 5.49738281 11.05783203 4.8515625 8.50390625 C4 6 4 6 2 5 Z " fill="#000000" transform="translate(166,194)"/>
<path d="M0 0 C1.32 0 2.64 0 4 0 C4 9.24 4 18.48 4 28 C2.68 28 1.36 28 0 28 C0 18.76 0 9.52 0 0 Z " fill="#000000" transform="translate(185,194)"/>
<path d="M0 0 C1.32 0.33 2.64 0.66 4 1 C4 2.32 4 3.64 4 5 C5.32 5.33 6.64 5.66 8 6 C8 6.99 8 7.98 8 9 C6.35 9 4.7 9 3 9 C3.05991406 10.95918968 3.14867138 12.91751529 3.25 14.875 C3.29640625 15.96554688 3.3428125 17.05609375 3.390625 18.1796875 C4 21 4 21 6.046875 22.3828125 C6.69140625 22.58648437 7.3359375 22.79015625 8 23 C8 23.99 8 24.98 8 26 C5.1875 26.25 5.1875 26.25 2 26 C-0.5217837 23.61831539 -0.9776284 22.24698247 -1.29296875 18.765625 C-1.25816406 17.60546875 -1.22335938 16.4453125 -1.1875 15.25 C-1.16042969 14.07953125 -1.13335937 12.9090625 -1.10546875 11.703125 C-1.07066406 10.81109375 -1.03585938 9.9190625 -1 9 C-1.99 9 -2.98 9 -4 9 C-4 8.01 -4 7.02 -4 6 C-3.01 5.34 -2.02 4.68 -1 4 C-0.3125 1.875 -0.3125 1.875 0 0 Z " fill="#000000" transform="translate(98,196)"/>
<path d="M0 0 C3.05161894 2.22685706 3.87371863 3.50458849 4.8125 7.1875 C4.874375 8.115625 4.93625 9.04375 5 10 C4 11 4 11 0.83984375 11.09765625 C0.19595703 11.09185547 0.19595703 11.09185547 -3.0625 11.0625 C-4.35285156 11.05347656 -5.64320312 11.04445312 -6.97265625 11.03515625 C-7.97167969 11.02355469 -8.97070312 11.01195312 -10 11 C-9.1796875 12.9453125 -9.1796875 12.9453125 -8 15 C-4.75873983 15.98647049 -2.88549474 16.39355322 0.25 15 C0.53875 14.835 0.53875 14.835 2 14 C2.66 14.33 3.32 14.66 4 15 C3.4375 16.875 3.4375 16.875 2 19 C-1.60983275 20.49842114 -3.9164774 21.27088065 -7.75 20.3125 C-10.69201162 18.59632656 -12.62631996 17.26294392 -13.6171875 13.9140625 C-14.03731198 10.18386636 -14.26271403 7.67138029 -12.875 4.125 C-8.91089047 -0.36765747 -5.86249958 -1.87101051 0 0 Z M-8.8125 4.375 C-10 6 -10 6 -10 8 C-6.7 8 -3.4 8 0 8 C-1 4 -1 4 -2 3 C-4.92728993 2.69186422 -6.42560445 2.56425165 -8.8125 4.375 Z " fill="#000000" transform="translate(122,202)"/>
<path d="M0 0 C1.91861989 3.13037982 1.88972112 6.30459771 2.1875 9.9375 C-2.4325 9.9375 -7.0525 9.9375 -11.8125 9.9375 C-11.4825 11.5875 -11.1525 13.2375 -10.8125 14.9375 C-4.1875 15.1875 -4.1875 15.1875 -0.8125 12.9375 C-0.1525 13.2675 0.5075 13.5975 1.1875 13.9375 C0.17011678 16.98964967 -0.61461672 17.83165545 -3.5 19.375 C-7.85134093 20.11390695 -10.00418355 19.06136879 -13.8125 16.9375 C-16.77568761 12.49271859 -16.45344171 8.15101364 -15.8125 2.9375 C-14.0046087 0.22566305 -12.86276036 -0.60738718 -9.9375 -1.875 C-6.32285776 -2.19393902 -3.16117735 -1.85310396 0 0 Z M-11.8125 3.9375 C-11.8125 4.9275 -11.8125 5.9175 -11.8125 6.9375 C-8.5125 6.9375 -5.2125 6.9375 -1.8125 6.9375 C-2.4725 5.2875 -3.1325 3.6375 -3.8125 1.9375 C-9.5625 1.6875 -9.5625 1.6875 -11.8125 3.9375 Z " fill="#000000" transform="translate(75.8125,203.0625)"/>
<path d="M0 0 C0 1.32 0 2.64 0 4 C-0.804375 4.28875 -1.60875 4.5775 -2.4375 4.875 C-5 6 -5 6 -6 8 C-6.07065617 10.04055005 -6.08421976 12.08334257 -6.0625 14.125 C-6.05798828 14.67285156 -6.05798828 14.67285156 -6.03515625 17.4453125 C-6.02355469 18.28835937 -6.01195313 19.13140625 -6 20 C-7.65 20.33 -9.3 20.66 -11 21 C-11 14.4 -11 7.8 -11 1 C-9.68 1 -8.36 1 -7 1 C-7 1.66 -7 2.32 -7 3 C-6.34 3 -5.68 3 -5 3 C-5 2.34 -5 1.68 -5 1 C-2 0 -2 0 0 0 Z " fill="#000000" transform="translate(92,201)"/>
<path d="M0 0 C1.65 0 3.3 0 5 0 C6.97610386 2.04424538 8 3.1176825 8 6 C8.66 6 9.32 6 10 6 C10.309375 5.195625 10.61875 4.39125 10.9375 3.5625 C12 1 12 1 13 0 C14.65 0 16.3 0 18 0 C17.01 1.65 17.01 1.65 12 10 C12.495 10.639375 12.495 10.639375 15 13.875 C18 17.75 18 17.75 18 20 C15.6875 20.3125 15.6875 20.3125 13 20 C11.18116991 17.6167054 10 16.04181663 10 13 C9.34 13 8.68 13 8 13 C7.690625 13.78375 7.38125 14.5675 7.0625 15.375 C6 18 6 18 5 20 C3.35 20 1.7 20 0 20 C0.48828125 19.15364583 0.48828125 19.15364583 2.9296875 14.921875 C4.01152359 12.97930801 5.00562222 10.98875555 6 9 C4.02 6.03 2.04 3.06 0 0 Z " fill="#000000" transform="translate(128,202)"/>
</svg>
